<svg height="512pt" viewBox="-3 0 512 512" width="512pt" xmlns="http://www.w3.org/2000/svg"><path d="m290.320312 444.039062h-163.027343c-22.363281 0-41.625-15.765624-46.039063-37.6875l-73.164062-363.28125c-3.703125-18.390624 10.359375-35.570312 29.125-35.570312h343.183594c18.761718 0 32.828124 17.179688 29.125 35.570312l-73.164063 363.28125c-4.417969 21.921876-23.675781 37.6875-46.039063 37.6875zm0 0" fill="#8ed2e2"/><path d="m37.214844 7.5c-18.761719 0-32.828125 17.179688-29.121094 35.570312l73.160156 363.28125c4.414063 21.921876 23.675782 37.6875 46.039063 37.6875h121.457031c-83.335938-90.632812-110.207031-319.695312-94.074219-436.539062zm0 0" fill="#6fb6e1"/><path d="m342.671875 374.996094 49.59375-246.242188c-106.984375 38.441406-267.066406-31.859375-370.492187-17.742187l53.167968 263.984375zm0 0" fill="#f7ef87"/><path d="m74.941406 374.996094h130.460938c-32.734375-72.648438-50.128906-170.46875-54.226563-255.289063-47.085937-7.851562-91.957031-13.804687-129.402343-8.695312zm0 0" fill="#efd176"/><path d="m424.925781 223.304688c12.199219-12.199219 32.429688-10.226563 42.1875 4 47.308594 68.984374 40.320313 164.011718-20.96875 225.300781-61.292969 61.289062-156.316406 68.28125-225.304687 20.96875-14.226563-9.757813-16.195313-29.988281-3.996094-42.1875zm0 0" fill="#5ec783"/><path d="m416.875 231.351562c53.015625 53.015626 53.015625 138.96875 0 191.984376-53.011719 53.015624-138.96875 53.015624-191.984375 0zm0 0" fill="#89d47f"/><path d="m313.605469 334.625v128.273438c4.847656.257812 9.710937.257812 14.558593 0v-117.976563l83.425782 83.425781c1.796875-1.613281 3.558594-3.28125 5.285156-5.007812 1.726562-1.730469 3.394531-3.492188 5.011719-5.289063l-83.425781-83.425781h117.976562c.257812-4.847656.257812-9.710938 0-14.558594h-128.273438zm0 0" fill="#5ec783"/><path d="m145.167969 261.316406c0-16.367187-16.660157-29.632812-37.210938-29.632812-20.554687 0-37.214843 13.265625-37.214843 29.632812 0 16.367188 16.660156 29.636719 37.214843 29.636719 20.550781 0 37.210938-13.269531 37.210938-29.636719zm0 0" fill="#eda1ab"/><path d="m346.871094 261.316406c0-16.367187-16.660156-29.632812-37.214844-29.632812-20.550781 0-37.210938 13.265625-37.210938 29.632812 0 16.367188 16.660157 29.636719 37.210938 29.636719 20.554688 0 37.214844-13.269531 37.214844-29.636719zm0 0" fill="#eda1ab"/><path d="m238.808594 238.546875c0-18.539063-13.433594-33.570313-30-33.570313-16.570313 0-30.003906 15.03125-30.003906 33.570313 0 18.542969 13.433593 33.574219 30.003906 33.574219 16.566406 0 30-15.03125 30-33.574219zm0 0" fill="#4e5660"/><path d="m354.503906 422.125c-2.945312 0-5.734375-1.742188-6.933594-4.628906l-6.550781-15.816406c-1.582031-3.824219.234375-8.210938 4.058594-9.796876 3.828125-1.585937 8.214844.230469 9.800781 4.058594l6.550782 15.8125c1.582031 3.828125-.234376 8.214844-4.058594 9.800782-.9375.386718-1.914063.570312-2.867188.570312zm0 0" fill="#fcf2d0"/><path d="m383.332031 309.640625c-2.945312 0-5.738281-1.742187-6.933593-4.632813-1.585938-3.824218.230468-8.214843 4.058593-9.796874l15.8125-6.550782c3.832031-1.585937 8.214844.230469 9.800781 4.058594 1.585938 3.824219-.234374 8.210938-4.058593 9.796875l-15.8125 6.550781c-.941407.390625-1.910157.574219-2.867188.574219zm0 0" fill="#fcf2d0"/><path d="m310.9375 226.324219v-15.972657c0-4.140624-3.359375-7.496093-7.5-7.496093s-7.5 3.355469-7.5 7.496093v15.972657c0 4.144531 3.359375 7.5 7.5 7.5s7.5-3.355469 7.5-7.5zm-64.628906 12.222656c0-22.644531-16.824219-41.070313-37.5-41.070313-20.679688 0-37.503906 18.425782-37.503906 41.070313 0 22.648437 16.824218 41.074219 37.503906 41.074219 20.675781 0 37.5-18.425782 37.5-41.074219zm-60.003906 0c0-14.375 10.09375-26.070313 22.503906-26.070313 12.40625 0 22.5 11.695313 22.5 26.070313 0 14.378906-10.09375 26.074219-22.5 26.074219-12.410156 0-22.503906-11.695313-22.503906-26.074219zm286.992187-15.484375c-5.9375-8.660156-15.328125-14.179688-25.761719-15.144531-10.367187-.953125-20.546875 2.714843-27.914062 10.082031l-47.183594 47.183594 44.4375-220.632813c2.210938-10.976562-.589844-22.246093-7.6875-30.914062-7.09375-8.664063-17.585938-13.636719-28.789062-13.636719h-343.183594c-11.199219 0-21.695313 4.972656-28.789063 13.636719-7.097656 8.667969-9.898437 19.9375-7.6875 30.917969l24.394531 121.109374c.816407 4.058594 4.769532 6.6875 8.832032 5.871094 4.058594-.816406 6.6875-4.773437 5.871094-8.832031l-9.097657-45.164063c41.695313-3.863281 92.085938 4.832032 145.253907 14.011719 46.882812 8.097657 94.746093 16.359375 139.273437 16.359375 23.523437 0 46.109375-2.320312 67.136719-8.175781l-29.125 144.609375-83.152344 83.152344h-189.042969l-34.078125-169.203125c-.820312-4.0625-4.769531-6.691407-8.832031-5.871094-4.0625.816406-6.691406 4.773437-5.875 8.832031l35.292969 175.222656c.003906.019532.007812.039063.011718.058594l6.300782 31.296875c5.101562 25.324219 27.554687 43.707031 53.390625 43.707031h74.03125c.019531.816407.058593 1.636719.132812 2.457032.964844 10.433594 6.484375 19.824218 15.144531 25.761718 31.15625 21.367188 67.648438 32.242188 104.320313 32.242188 27.492187 0 55.089844-6.113281 80.609375-18.5 3.726562-1.808594 5.28125-6.296875 3.472656-10.023438-1.808594-3.726562-6.296875-5.277343-10.023437-3.472656-54.714844 26.566406-119.816407 21.730469-169.894531-12.613281-4.972657-3.410156-8.140626-8.796875-8.691407-14.773437-.546875-5.917969 1.550781-11.722657 5.753907-15.925782l2.882812-2.882812c26.347656 23.777344 60.097656 36.792968 95.851562 36.792968 38.265626 0 74.238282-14.902343 101.296876-41.960937 27.058593-27.054687 41.957031-63.03125 41.957031-101.292969 0-35.757812-13.011719-69.507812-36.792969-95.855468l2.882812-2.882813c4.207032-4.203125 10.007813-6.300781 15.929688-5.753906 5.980469.550781 11.363281 3.71875 14.773438 8.691406 46.121093 67.253906 37.675781 157.992187-20.089844 215.753906-5.28125 5.285157-10.945313 10.253907-16.828125 14.769531-3.285157 2.523438-3.90625 7.230469-1.382813 10.515626 2.523438 3.289062 7.230469 3.90625 10.515625 1.382812 6.402344-4.910156 12.558594-10.316406 18.304688-16.058594 62.867187-62.871094 72.054687-161.636718 21.847656-234.847656zm-294.753906-106.292969c-54.828125-9.464843-106.765625-18.425781-150.777344-14.003906l-12.320313-61.175781c-1.320312-6.550782.351563-13.277344 4.585938-18.453125 4.234375-5.171875 10.496094-8.136719 17.183594-8.136719h343.183594c6.6875 0 12.949218 2.964844 17.183593 8.140625 4.234375 5.171875 5.90625 11.898437 4.585938 18.453125l-16.402344 81.441406c-58.742187 19.355469-134.191406 6.34375-207.222656-6.265625zm41.050781 301.261719c-.003906 0-.003906 0-.003906.003906-.003906 0-.003906 0-.003906.003906l-8.046876 8.042969c-3.058593 3.0625-5.472656 6.613281-7.191406 10.457031h-77.054687c-18.71875 0-34.988281-13.316406-38.683594-31.667968l-4.507813-22.375h171.023438zm229.542969-90.683594c0 34.257813-13.339844 66.464844-37.5625 90.6875-24.226563 24.222656-56.433594 37.5625-90.691407 37.5625-31.742187 0-61.722656-11.460937-85.226562-32.417968l181.0625-181.0625c20.957031 23.503906 32.417969 53.484374 32.417969 85.230468zm-327.460938-101.023437v-15.972657c0-4.140624-3.359375-7.496093-7.5-7.496093s-7.5 3.355469-7.5 7.496093v15.972657c0 4.144531 3.359375 7.5 7.5 7.5s7.5-3.355469 7.5-7.5zm0 0"/></svg>